<?xml version="1.0" encoding="UTF-8" standalone="no"?>
<svg width="308" height="308" viewBox="0 0 308 308" fill="none" xmlns="http://www.w3.org/2000/svg">
    <path d="M154 0L184.476 47.0172L236.967 32.033L242.355 86.4789L294.283 98.7168L273.283 150L294.283 201.283L242.355 213.521L236.967 267.967L184.476 252.983L154 300L123.524 252.983L71.033 267.967L65.6453 213.521L13.7172 201.283L34.7172 150L13.7172 98.7168L65.6453 86.4789L71.033 32.033L123.524 47.0172L154 0Z" fill="#915EFF"/>
    <path d="M154 50L170 90L210 100L170 110L154 150L138 110L98 100L138 90L154 50Z" fill="white"/>
</svg>
